<svg width="168" height="127" viewBox="0 0 168 127" fill="none" xmlns="http://www.w3.org/2000/svg">
<path d="M0 93V0H19.5864V38.3716H59.3473V0H78.8885V46.5V93H59.3473V54.583H19.5864V93H0Z" fill="#FFA500"/>
<path d="M96.5299 93V46.5V0H133.622C140.437 0 146.122 1.01416 150.675 3.04248C155.229 5.0708 158.652 7.88623 160.943 11.4888C163.235 15.061 164.381 19.1782 164.381 23.8403C164.381 27.4731 163.658 30.667 162.21 33.4219C160.763 36.1465 158.772 38.3867 156.239 40.1426C153.736 41.8682 150.871 43.0942 147.645 43.8208V44.729C151.173 44.8804 154.475 45.8794 157.551 47.7261C160.657 49.5728 163.175 52.1611 165.105 55.4912C167.035 58.791 168 62.7266 168 67.2979C168 72.2324 166.779 76.6372 164.336 80.5122C161.924 84.3569 158.35 87.3994 153.616 89.6396C148.881 91.8799 143.046 93 136.11 93H96.5299ZM116.116 76.9248H132.084C137.542 76.9248 141.523 75.8804 144.026 73.7915C146.529 71.6724 147.78 68.8569 147.78 65.3452C147.78 62.772 147.162 60.5015 145.926 58.5337C144.689 56.5659 142.925 55.022 140.633 53.9019C138.372 52.7817 135.673 52.2217 132.536 52.2217H116.116V76.9248ZM116.116 38.9165H130.637C133.32 38.9165 135.703 38.4473 137.784 37.5088C139.894 36.54 141.553 35.1777 142.759 33.4219C143.996 31.666 144.614 29.562 144.614 27.1099C144.614 23.7495 143.423 21.04 141.04 18.9814C138.688 16.9228 135.341 15.8936 130.998 15.8936H116.116V38.9165Z" fill="#FFA500"/>
<path d="M59.6187 0.0908231C83.0457 51.3116 96.0451 52.0714 116.116 0V46.7234V69.75L115.347 93C94.8521 37.7033 82.6308 38.6061 59.6187 93V0.0908231Z" fill="#947300"/>
<path d="M1.93182 122V107.455H3.25994V114.124H11.5128V107.455H12.8409V122H11.5128V115.317H3.25994V122H1.93182ZM28.6222 114.727C28.6222 116.242 28.3523 117.561 27.8125 118.683C27.2727 119.801 26.5294 120.667 25.5824 121.283C24.6402 121.893 23.5559 122.199 22.3295 122.199C21.1032 122.199 20.0166 121.893 19.0696 121.283C18.1274 120.667 17.3864 119.801 16.8466 118.683C16.3116 117.561 16.044 116.242 16.044 114.727C16.044 113.212 16.3116 111.896 16.8466 110.778C17.3864 109.656 18.1297 108.79 19.0767 108.179C20.0237 107.563 21.108 107.256 22.3295 107.256C23.5559 107.256 24.6402 107.563 25.5824 108.179C26.5294 108.79 27.2727 109.656 27.8125 110.778C28.3523 111.896 28.6222 113.212 28.6222 114.727ZM27.3295 114.727C27.3295 113.425 27.1117 112.31 26.6761 111.382C26.2405 110.449 25.6463 109.737 24.8935 109.244C24.1406 108.752 23.286 108.506 22.3295 108.506C21.3778 108.506 20.5256 108.752 19.7727 109.244C19.0199 109.737 18.4233 110.447 17.983 111.375C17.5473 112.303 17.3295 113.42 17.3295 114.727C17.3295 116.029 17.5473 117.144 17.983 118.072C18.4186 119 19.0128 119.713 19.7656 120.21C20.5185 120.703 21.3731 120.949 22.3295 120.949C23.286 120.949 24.1406 120.703 24.8935 120.21C25.651 119.718 26.2476 119.008 26.6832 118.08C27.1188 117.147 27.3343 116.029 27.3295 114.727ZM30.348 108.648V107.455H40.8949V108.648H36.2855V122H34.9574V108.648H30.348ZM49.5099 122V107.455H54.4176C55.3646 107.455 56.1529 107.62 56.7827 107.952C57.4171 108.283 57.893 108.735 58.2102 109.308C58.5275 109.881 58.6861 110.532 58.6861 111.261C58.6861 111.867 58.5843 112.386 58.3807 112.817C58.1771 113.248 57.9001 113.596 57.5497 113.861C57.1993 114.126 56.8087 114.318 56.3778 114.436V114.55C56.8466 114.583 57.3011 114.749 57.7415 115.047C58.1818 115.34 58.544 115.752 58.8281 116.283C59.1122 116.813 59.2543 117.447 59.2543 118.186C59.2543 118.92 59.0909 119.576 58.7642 120.153C58.4375 120.726 57.9356 121.179 57.2585 121.51C56.5862 121.837 55.7292 122 54.6875 122H49.5099ZM50.8381 120.807H54.6875C55.8097 120.807 56.6383 120.558 57.1733 120.061C57.7131 119.564 57.983 118.939 57.983 118.186C57.983 117.632 57.848 117.13 57.5781 116.68C57.313 116.226 56.9366 115.866 56.4489 115.601C55.9659 115.336 55.3977 115.203 54.7443 115.203H50.8381V120.807ZM50.8381 114.024H54.5384C55.1113 114.024 55.6132 113.906 56.044 113.669C56.4749 113.432 56.8111 113.106 57.0526 112.689C57.294 112.272 57.4148 111.796 57.4148 111.261C57.4148 110.49 57.1638 109.862 56.6619 109.379C56.16 108.892 55.4119 108.648 54.4176 108.648H50.8381V114.024ZM62.4592 122V107.455H70.8967V108.648H63.7873V114.124H70.4492V115.317H63.7873V120.807H71.0387V122H62.4592ZM74.3555 122H72.9634L78.2546 107.455H79.6751L84.9663 122H83.5742L79.0146 109.18H78.9151L74.3555 122ZM75.3569 116.425H82.5728V117.618H75.3569V116.425ZM98.7873 107.455V122H97.4947L88.9009 109.82H88.7873V122H87.4592V107.455H88.7447L97.3668 119.649H97.4805V107.455H98.7873ZM110.552 111.091C110.472 110.281 110.114 109.637 109.48 109.159C108.845 108.681 108.047 108.442 107.086 108.442C106.409 108.442 105.813 108.558 105.297 108.79C104.785 109.022 104.383 109.344 104.089 109.756C103.8 110.163 103.656 110.627 103.656 111.148C103.656 111.531 103.739 111.867 103.904 112.156C104.07 112.445 104.293 112.694 104.572 112.902C104.856 113.106 105.169 113.281 105.51 113.428C105.855 113.574 106.203 113.697 106.554 113.797L108.088 114.237C108.552 114.365 109.016 114.528 109.48 114.727C109.944 114.926 110.368 115.177 110.751 115.48C111.139 115.778 111.449 116.145 111.681 116.581C111.918 117.012 112.037 117.53 112.037 118.136C112.037 118.913 111.835 119.611 111.433 120.232C111.03 120.852 110.453 121.344 109.7 121.709C108.947 122.069 108.045 122.249 106.994 122.249C106.004 122.249 105.145 122.085 104.416 121.759C103.687 121.427 103.114 120.97 102.697 120.388C102.28 119.805 102.046 119.131 101.994 118.364H103.358C103.405 118.937 103.594 119.422 103.926 119.82C104.257 120.217 104.688 120.52 105.218 120.729C105.749 120.932 106.341 121.034 106.994 121.034C107.718 121.034 108.362 120.913 108.926 120.672C109.494 120.426 109.939 120.085 110.261 119.649C110.588 119.209 110.751 118.697 110.751 118.115C110.751 117.623 110.623 117.211 110.368 116.879C110.112 116.543 109.754 116.261 109.295 116.034C108.841 115.807 108.313 115.606 107.711 115.43L105.971 114.919C104.83 114.578 103.945 114.107 103.315 113.506C102.685 112.904 102.37 112.137 102.37 111.205C102.37 110.423 102.579 109.737 102.995 109.145C103.417 108.548 103.985 108.084 104.7 107.753C105.42 107.417 106.227 107.249 107.122 107.249C108.026 107.249 108.826 107.414 109.522 107.746C110.218 108.077 110.77 108.534 111.177 109.116C111.589 109.694 111.809 110.352 111.838 111.091H110.552ZM123.386 122L119.402 107.455H120.751L124.047 119.962H124.16L127.456 107.455H128.99L132.285 119.962H132.399L135.694 107.455H137.051L133.066 122H131.646L128.272 109.663H128.18L124.806 122H123.386ZM139.451 122V107.455H147.889V108.648H140.779V114.124H147.441V115.317H140.779V120.807H148.031V122H139.451ZM151.326 122V107.455H156.234C157.181 107.455 157.969 107.62 158.599 107.952C159.234 108.283 159.709 108.735 160.027 109.308C160.344 109.881 160.502 110.532 160.502 111.261C160.502 111.867 160.401 112.386 160.197 112.817C159.993 113.248 159.717 113.596 159.366 113.861C159.016 114.126 158.625 114.318 158.194 114.436V114.55C158.663 114.583 159.118 114.749 159.558 115.047C159.998 115.34 160.36 115.752 160.645 116.283C160.929 116.813 161.071 117.447 161.071 118.186C161.071 118.92 160.907 119.576 160.581 120.153C160.254 120.726 159.752 121.179 159.075 121.51C158.403 121.837 157.546 122 156.504 122H151.326ZM152.654 120.807H156.504C157.626 120.807 158.455 120.558 158.99 120.061C159.529 119.564 159.799 118.939 159.799 118.186C159.799 117.632 159.664 117.13 159.395 116.68C159.129 116.226 158.753 115.866 158.265 115.601C157.782 115.336 157.214 115.203 156.561 115.203H152.654V120.807ZM152.654 114.024H156.355C156.928 114.024 157.43 113.906 157.86 113.669C158.291 113.432 158.627 113.106 158.869 112.689C159.11 112.272 159.231 111.796 159.231 111.261C159.231 110.49 158.98 109.862 158.478 109.379C157.976 108.892 157.228 108.648 156.234 108.648H152.654V114.024Z" fill="black"/>
</svg>
